<svg xmlns="http://www.w3.org/2000/svg" version="1.1" xmlns:xlink="http://www.w3.org/1999/xlink" xmlns:svgjs="http://svgjs.dev/svgjs" width="2000" height="2250" viewBox="0 0 2000 2250"><g transform="matrix(1,0,0,1,0,0)"><svg viewBox="0 0 320 360" data-background-color="#000000" preserveAspectRatio="xMidYMid meet" height="2250" width="2000" xmlns="http://www.w3.org/2000/svg" xmlns:xlink="http://www.w3.org/1999/xlink"><g id="tight-bounds" transform="matrix(1,0,0,1,0,0)"><svg viewBox="0 0 320 360" height="360" width="320"><rect width="320" height="360" fill="url(#9469614c-381f-4273-ae0a-6f6463a03c2b)" mask="url(#308fe2dc-3948-4580-9940-bd34a8418c17)" data-fill-palette-color="tertiary"></rect><g><svg></svg></g><g><svg viewBox="0 0 320 360" height="360" width="320"><g><path d="M160 340c88.258 0 160-71.742 160-160 0-88.258-71.742-160-160-160-88.258 0-160 71.742-160 160 0 88.258 71.742 160 160 160zM165.161 329.368v-10.323c72.671-2.684 131.2-61.213 133.884-133.884h10.323c-2.684 78.452-65.755 141.523-144.207 144.207zM165.161 30.632c78.452 2.684 141.523 65.755 144.207 144.207h-10.323c-2.684-72.671-61.213-131.2-133.884-133.884zM289.032 180c0 71.123-57.91 129.032-129.032 129.032-71.123 0-129.032-57.91-129.032-129.032 0-71.123 57.91-129.032 129.032-129.032 71.123 0 129.032 57.91 129.032 129.032zM154.839 30.632v10.323c-72.671 2.684-131.2 61.213-133.884 133.884h-10.323c2.684-78.452 65.755-141.523 144.207-144.207zM20.955 185.161c2.684 72.671 61.213 131.2 133.884 133.884v10.323c-78.452-2.684-141.523-65.755-144.207-144.207z" fill="url(#9469614c-381f-4273-ae0a-6f6463a03c2b)" fill-rule="nonzero" stroke="none" stroke-width="1" stroke-linecap="butt" stroke-linejoin="miter" stroke-miterlimit="10" stroke-dasharray="" stroke-dashoffset="0" font-family="none" font-weight="none" font-size="none" text-anchor="none" style="mix-blend-mode: normal" data-fill-palette-color="tertiary"></path></g><g transform="matrix(1,0,0,1,64,156.5904298459043)"><svg viewBox="0 0 192 46.8191403081914" height="46.8191403081914" width="192"><g><svg viewBox="0 0 192 46.8191403081914" height="46.8191403081914" width="192"><g><svg viewBox="0 0 192 46.8191403081914" height="46.8191403081914" width="192"><g id="textblocktransform"><svg viewBox="0 0 192 46.8191403081914" height="46.8191403081914" width="192" id="textblock"><g><svg viewBox="0 0 192 46.8191403081914" height="46.8191403081914" width="192"><g transform="matrix(1,0,0,1,0,0)"><svg width="192" viewBox="2.7 -35.35 184.93 45.10000000000001" height="46.8191403081914" data-palette-color="url(#f0d5c1a4-ea17-4c09-95b7-0629e735e969)"></svg></g></svg></g></svg></g></svg></g><g></g></svg></g></svg></g></svg></g><defs></defs><mask id="adb5932a-0dab-4415-8663-cf05b27417ab"><g id="SvgjsG4517"><svg viewBox="0 0 320 360" height="360" width="320"><g><svg></svg></g><g><svg viewBox="0 0 320 360" height="360" width="320"><g><path d="M160 340c88.258 0 160-71.742 160-160 0-88.258-71.742-160-160-160-88.258 0-160 71.742-160 160 0 88.258 71.742 160 160 160zM165.161 329.368v-10.323c72.671-2.684 131.2-61.213 133.884-133.884h10.323c-2.684 78.452-65.755 141.523-144.207 144.207zM165.161 30.632c78.452 2.684 141.523 65.755 144.207 144.207h-10.323c-2.684-72.671-61.213-131.2-133.884-133.884zM289.032 180c0 71.123-57.91 129.032-129.032 129.032-71.123 0-129.032-57.91-129.032-129.032 0-71.123 57.91-129.032 129.032-129.032 71.123 0 129.032 57.91 129.032 129.032zM154.839 30.632v10.323c-72.671 2.684-131.2 61.213-133.884 133.884h-10.323c2.684-78.452 65.755-141.523 144.207-144.207zM20.955 185.161c2.684 72.671 61.213 131.2 133.884 133.884v10.323c-78.452-2.684-141.523-65.755-144.207-144.207z" fill="black" fill-rule="nonzero" stroke="none" stroke-width="1" stroke-linecap="butt" stroke-linejoin="miter" stroke-miterlimit="10" stroke-dasharray="" stroke-dashoffset="0" font-family="none" font-weight="none" font-size="none" text-anchor="none" style="mix-blend-mode: normal"></path></g><g transform="matrix(1,0,0,1,64,156.5904298459043)"><svg viewBox="0 0 192 46.8191403081914" height="46.8191403081914" width="192"><g><svg viewBox="0 0 192 46.8191403081914" height="46.8191403081914" width="192"><g><svg viewBox="0 0 192 46.8191403081914" height="46.8191403081914" width="192"><g id="SvgjsG4516"><svg viewBox="0 0 192 46.8191403081914" height="46.8191403081914" width="192" id="SvgjsSvg4515"><g><svg viewBox="0 0 192 46.8191403081914" height="46.8191403081914" width="192"><g transform="matrix(1,0,0,1,0,0)"><svg width="192" viewBox="2.7 -35.35 184.93 45.10000000000001" height="46.8191403081914" data-palette-color="url(#f0d5c1a4-ea17-4c09-95b7-0629e735e969)"><path d="M20.1-21.25L6.6-15.05 22-7.05Q22.05-6.8 22.05-6.6 22.05-6.4 22.05-6.15L22.05-6.15Q22.05-5.4 21.55-4.9 21.05-4.4 20.2-4.4L20.2-4.4Q19.85-4.4 19.4-4.58 18.95-4.75 18.45-5.05L18.45-5.05 3.2-13.35Q2.7-14.1 2.7-15L2.7-15Q2.7-15.75 2.95-16.23 3.2-16.7 3.55-16.9L3.55-16.9 20.25-25.45Q21.1-25.15 21.5-24.65 21.9-24.15 21.9-23.55L21.9-23.55Q21.9-22.75 21.4-22.25 20.9-21.75 20.1-21.25L20.1-21.25ZM45.65-11.35L28.85-9 28.65-12.15 43.75-14.2Q43.55-16.95 41.85-18.73 40.15-20.5 37.15-20.5L37.15-20.5Q34.05-20.5 32.02-18.28 30-16.05 30-11.9L30-11.9 30-10.8Q30.35-6.8 32.62-4.73 34.9-2.65 38.85-2.65L38.85-2.65Q40.95-2.65 42.65-3.35 44.35-4.05 45.35-4.85L45.35-4.85Q45.9-4.5 46.22-4.03 46.55-3.55 46.55-2.95L46.55-2.95Q46.55-2 45.47-1.18 44.4-0.35 42.62 0.15 40.85 0.65 38.65 0.65L38.65 0.65Q34.8 0.65 31.97-0.75 29.15-2.15 27.62-4.93 26.1-7.7 26.1-11.7L26.1-11.7Q26.1-14.55 26.92-16.78 27.75-19 29.22-20.55 30.7-22.1 32.75-22.93 34.8-23.75 37.2-23.75L37.2-23.75Q40.25-23.75 42.57-22.45 44.9-21.15 46.22-18.82 47.55-16.5 47.55-13.5L47.55-13.5Q47.55-12.4 47.05-11.93 46.55-11.45 45.65-11.35L45.65-11.35ZM72-16L72-16 72-10.25 68-10.25 68-15.7Q68-18.15 66.57-19.3 65.15-20.45 62.8-20.45L62.8-20.45Q61.25-20.45 59.8-19.95 58.35-19.45 57.35-18.8L57.35-18.8 57.35-10.25 53.35-10.25 53.35-18.6Q53.35-19.6 53.77-20.3 54.2-21 55.25-21.65L55.25-21.65Q56.6-22.5 58.67-23.13 60.75-23.75 62.85-23.75L62.85-23.75Q65.4-23.75 67.34-22.98 69.3-22.2 70.25-20.85L70.25-20.85Q70.55-20.55 70.75-20.3 70.95-20.05 71.15-19.65L71.15-19.65Q71.5-19.05 71.75-18.1 72-17.15 72-16ZM86.65-15.9L86.65-15.9 86.65-10.25 82.65-10.25 82.65-15.7Q82.65-18.15 81.25-19.3 79.84-20.45 77.5-20.45L77.5-20.45Q75.75-20.45 74.12-19.73 72.5-19 71.2-17.65L71.2-17.65 69.59-20.55Q70.9-21.85 73-22.8 75.09-23.75 77.8-23.75L77.8-23.75Q80.5-23.75 82.47-22.9 84.45-22.05 85.55-20.3 86.65-18.55 86.65-15.9ZM53.35-1.55L53.35-12.9 57.35-12.9 57.35-0.1Q57.1 0 56.6 0.13 56.1 0.25 55.5 0.25L55.5 0.25Q54.45 0.25 53.9-0.18 53.35-0.6 53.35-1.55L53.35-1.55ZM68-1.55L68-12.9 72-12.9 72-0.1Q71.75 0 71.22 0.13 70.7 0.25 70.15 0.25L70.15 0.25Q69.05 0.25 68.52-0.18 68-0.6 68-1.55L68-1.55ZM82.65-1.55L82.65-12.9 86.65-12.9 86.65-0.1Q86.4 0 85.87 0.13 85.34 0.25 84.8 0.25L84.8 0.25Q83.7 0.25 83.17-0.18 82.65-0.6 82.65-1.55L82.65-1.55ZM90.69 7.3L90.69 7.3Q91.89 6.75 92.74 6.15 93.59 5.55 94.07 4.48 94.54 3.4 94.54 1.5L94.54 1.5 94.54-15.15 98.54-15.15 98.54 2.25Q98.54 5.15 97.54 6.78 96.54 8.4 95.24 9.08 93.94 9.75 92.99 9.75L92.99 9.75Q91.74 9.75 91.27 9.03 90.79 8.3 90.69 7.3ZM93.94-30.4L93.94-30.4Q93.94-31.45 94.69-32.18 95.44-32.9 96.54-32.9L96.54-32.9Q97.69-32.9 98.39-32.18 99.09-31.45 99.09-30.4L99.09-30.4Q99.09-29.35 98.39-28.63 97.69-27.9 96.54-27.9L96.54-27.9Q95.44-27.9 94.69-28.63 93.94-29.35 93.94-30.4ZM98.54-21.5L98.54-10.7 94.54-11.25 94.54-23Q94.79-23.1 95.32-23.23 95.84-23.35 96.44-23.35L96.44-23.35Q97.49-23.35 98.02-22.93 98.54-22.5 98.54-21.5L98.54-21.5ZM114.54 0.7L114.54 0.7Q109.84 0.7 107.27-1.15 104.69-3 104.69-6.5L104.69-6.5Q104.69-9.75 106.87-11.48 109.04-13.2 112.89-13.55L112.89-13.55 119.99-14.25 119.99-15.65Q119.99-18.15 118.49-19.3 116.99-20.45 114.44-20.45L114.44-20.45Q112.39-20.45 110.52-19.85 108.64-19.25 107.19-18.5L107.19-18.5Q106.79-18.85 106.47-19.33 106.14-19.8 106.14-20.3L106.14-20.3Q106.14-21.6 107.59-22.3L107.59-22.3Q108.94-23 110.72-23.38 112.49-23.75 114.49-23.75L114.49-23.75Q118.84-23.75 121.39-21.8 123.94-19.85 123.94-15.65L123.94-15.65 123.94-3.8Q123.94-2.7 123.52-2.13 123.09-1.55 122.24-1.05L122.24-1.05Q121.04-0.4 119.04 0.15 117.04 0.7 114.54 0.7ZM114.54-2.6L114.54-2.6Q116.64-2.6 118.02-3.03 119.39-3.45 119.99-3.85L119.99-3.85 119.99-11.1 113.79-10.45Q111.19-10.25 109.94-9.3 108.69-8.35 108.69-6.55L108.69-6.55Q108.69-4.7 110.17-3.65 111.64-2.6 114.54-2.6ZM135.94-5.15L135.94-5.15Q135.09-6.75 133.89-9.47 132.69-12.2 131.41-15.58 130.14-18.95 128.99-22.45L128.99-22.45Q129.34-22.95 129.91-23.25 130.49-23.55 131.14-23.55L131.14-23.55Q131.99-23.55 132.54-23.1 133.09-22.65 133.44-21.6L133.44-21.6Q134.94-17.4 136.59-13.25 138.24-9.1 140.24-4.65L140.24-4.65 140.44-4.65Q141.49-6.75 142.64-9.9 143.79-13.05 144.84-16.55 145.89-20.05 146.59-23.15L146.59-23.15Q146.94-23.3 147.36-23.43 147.79-23.55 148.29-23.55L148.29-23.55Q149.14-23.55 149.69-23.13 150.24-22.7 150.24-21.85L150.24-21.85Q150.24-21.05 149.79-19.18 149.34-17.3 148.56-14.83 147.79-12.35 146.76-9.58 145.74-6.8 144.56-4.13 143.39-1.45 142.19 0.7L142.19 0.7Q139.89 4.95 137.99 7.23 136.09 9.5 134.49 9.5L134.49 9.5Q133.34 9.5 132.71 8.9 132.09 8.3 131.94 7.5L131.94 7.5Q133.04 6.55 134.41 4.98 135.79 3.4 137.06 1.58 138.34-0.25 139.14-1.9L139.14-1.9Q138.29-2.15 137.56-2.8 136.84-3.45 135.94-5.15ZM165.64-31.05L165.64-31.05 156.39 5.25Q156.09 5.3 155.79 5.33 155.49 5.35 155.09 5.35L155.09 5.35Q154.14 5.35 153.64 4.88 153.14 4.4 153.14 3.55L153.14 3.55Q153.14 3 153.34 2.25 153.54 1.5 153.64 1.05L153.64 1.05 162.84-35.25Q163.19-35.3 163.49-35.33 163.79-35.35 164.14-35.35L164.14-35.35Q164.99-35.35 165.54-34.93 166.09-34.5 166.09-33.55L166.09-33.55Q166.09-33 165.94-32.33 165.79-31.65 165.64-31.05ZM170.73-8.75L183.73-15.1 168.83-22.95Q168.78-23.2 168.78-23.43 168.78-23.65 168.78-23.85L168.78-23.85Q168.78-24.55 169.28-25.08 169.78-25.6 170.58-25.6L170.58-25.6Q170.98-25.6 171.41-25.43 171.83-25.25 172.33-25L172.33-25 187.13-16.7Q187.63-15.95 187.63-15L187.63-15Q187.63-14.25 187.41-13.8 187.18-13.35 186.78-13.1L186.78-13.1 170.58-4.6Q169.73-4.85 169.33-5.38 168.93-5.9 168.93-6.5L168.93-6.5Q168.93-7.3 169.43-7.8 169.93-8.3 170.73-8.75L170.73-8.75Z" opacity="1" transform="matrix(1,0,0,1,0,0)" fill="white" class="wordmark-text-0" id="SvgjsPath4514"></path></svg></g></svg></g></svg></g></svg></g><g></g></svg></g></svg></g></svg></g><defs><mask></mask></defs></svg><rect width="320" height="360" fill="black" stroke="none" visibility="hidden"></rect></g></mask><linearGradient x1="0" x2="1" y1="0.5" y2="0.5" id="f0d5c1a4-ea17-4c09-95b7-0629e735e969"><stop stop-color="#ffa62e" offset="0"></stop><stop stop-color="#f71b3d" offset="1"></stop></linearGradient><rect width="320" height="360" fill="url(#f0d5c1a4-ea17-4c09-95b7-0629e735e969)" mask="url(#adb5932a-0dab-4415-8663-cf05b27417ab)" data-fill-palette-color="primary"></rect><mask id="308fe2dc-3948-4580-9940-bd34a8418c17"><g id="SvgjsG4540"><svg viewBox="0 0 320 360" height="360" width="320"><g><svg></svg></g><g><svg viewBox="0 0 320 360" height="360" width="320"><g><path d="M160 340c88.258 0 160-71.742 160-160 0-88.258-71.742-160-160-160-88.258 0-160 71.742-160 160 0 88.258 71.742 160 160 160zM165.161 329.368v-10.323c72.671-2.684 131.2-61.213 133.884-133.884h10.323c-2.684 78.452-65.755 141.523-144.207 144.207zM165.161 30.632c78.452 2.684 141.523 65.755 144.207 144.207h-10.323c-2.684-72.671-61.213-131.2-133.884-133.884zM289.032 180c0 71.123-57.91 129.032-129.032 129.032-71.123 0-129.032-57.91-129.032-129.032 0-71.123 57.91-129.032 129.032-129.032 71.123 0 129.032 57.91 129.032 129.032zM154.839 30.632v10.323c-72.671 2.684-131.2 61.213-133.884 133.884h-10.323c2.684-78.452 65.755-141.523 144.207-144.207zM20.955 185.161c2.684 72.671 61.213 131.2 133.884 133.884v10.323c-78.452-2.684-141.523-65.755-144.207-144.207z" fill="white" fill-rule="nonzero" stroke="none" stroke-width="1" stroke-linecap="butt" stroke-linejoin="miter" stroke-miterlimit="10" stroke-dasharray="" stroke-dashoffset="0" font-family="none" font-weight="none" font-size="none" text-anchor="none" style="mix-blend-mode: normal"></path></g><g transform="matrix(1,0,0,1,64,156.5904298459043)"><svg viewBox="0 0 192 46.8191403081914" height="46.8191403081914" width="192"><g><svg viewBox="0 0 192 46.8191403081914" height="46.8191403081914" width="192"><g><svg viewBox="0 0 192 46.8191403081914" height="46.8191403081914" width="192"><g id="SvgjsG4539"><svg viewBox="0 0 192 46.8191403081914" height="46.8191403081914" width="192" id="SvgjsSvg4538"><g><svg viewBox="0 0 192 46.8191403081914" height="46.8191403081914" width="192"><g transform="matrix(1,0,0,1,0,0)"><svg width="192" viewBox="2.7 -35.35 184.93 45.10000000000001" height="46.8191403081914" data-palette-color="url(#f0d5c1a4-ea17-4c09-95b7-0629e735e969)"></svg></g></svg></g></svg></g></svg></g><g></g></svg></g></svg></g></svg></g><defs><mask></mask></defs><mask><g id="SvgjsG4537"><svg viewBox="0 0 320 360" height="360" width="320"><g><svg></svg></g><g><svg viewBox="0 0 320 360" height="360" width="320"><g><path d="M160 340c88.258 0 160-71.742 160-160 0-88.258-71.742-160-160-160-88.258 0-160 71.742-160 160 0 88.258 71.742 160 160 160zM165.161 329.368v-10.323c72.671-2.684 131.2-61.213 133.884-133.884h10.323c-2.684 78.452-65.755 141.523-144.207 144.207zM165.161 30.632c78.452 2.684 141.523 65.755 144.207 144.207h-10.323c-2.684-72.671-61.213-131.2-133.884-133.884zM289.032 180c0 71.123-57.91 129.032-129.032 129.032-71.123 0-129.032-57.91-129.032-129.032 0-71.123 57.91-129.032 129.032-129.032 71.123 0 129.032 57.91 129.032 129.032zM154.839 30.632v10.323c-72.671 2.684-131.2 61.213-133.884 133.884h-10.323c2.684-78.452 65.755-141.523 144.207-144.207zM20.955 185.161c2.684 72.671 61.213 131.2 133.884 133.884v10.323c-78.452-2.684-141.523-65.755-144.207-144.207z" fill="black" fill-rule="nonzero" stroke="none" stroke-width="1" stroke-linecap="butt" stroke-linejoin="miter" stroke-miterlimit="10" stroke-dasharray="" stroke-dashoffset="0" font-family="none" font-weight="none" font-size="none" text-anchor="none" style="mix-blend-mode: normal"></path></g><g transform="matrix(1,0,0,1,64,156.5904298459043)"><svg viewBox="0 0 192 46.8191403081914" height="46.8191403081914" width="192"><g><svg viewBox="0 0 192 46.8191403081914" height="46.8191403081914" width="192"><g><svg viewBox="0 0 192 46.8191403081914" height="46.8191403081914" width="192"><g id="SvgjsG4536"><svg viewBox="0 0 192 46.8191403081914" height="46.8191403081914" width="192" id="SvgjsSvg4535"><g><svg viewBox="0 0 192 46.8191403081914" height="46.8191403081914" width="192"><g transform="matrix(1,0,0,1,0,0)"><svg width="192" viewBox="2.7 -35.35 184.93 45.10000000000001" height="46.8191403081914" data-palette-color="url(#f0d5c1a4-ea17-4c09-95b7-0629e735e969)"><path d="M20.1-21.25L6.6-15.05 22-7.05Q22.05-6.8 22.05-6.6 22.05-6.4 22.05-6.15L22.05-6.15Q22.05-5.4 21.55-4.9 21.05-4.4 20.2-4.4L20.2-4.4Q19.85-4.4 19.4-4.58 18.95-4.75 18.45-5.05L18.45-5.05 3.2-13.35Q2.7-14.1 2.7-15L2.7-15Q2.7-15.75 2.95-16.23 3.2-16.7 3.55-16.9L3.55-16.9 20.25-25.45Q21.1-25.15 21.5-24.65 21.9-24.15 21.9-23.55L21.9-23.55Q21.9-22.75 21.4-22.25 20.9-21.75 20.1-21.25L20.1-21.25ZM45.65-11.35L28.85-9 28.65-12.15 43.75-14.2Q43.55-16.95 41.85-18.73 40.15-20.5 37.15-20.5L37.15-20.5Q34.05-20.5 32.02-18.28 30-16.05 30-11.9L30-11.9 30-10.8Q30.35-6.8 32.62-4.73 34.9-2.65 38.85-2.65L38.85-2.65Q40.95-2.65 42.65-3.35 44.35-4.05 45.35-4.85L45.35-4.85Q45.9-4.5 46.22-4.03 46.55-3.55 46.55-2.95L46.55-2.95Q46.55-2 45.47-1.18 44.4-0.35 42.62 0.15 40.85 0.65 38.65 0.65L38.65 0.65Q34.8 0.65 31.97-0.75 29.15-2.15 27.62-4.93 26.1-7.7 26.1-11.7L26.1-11.7Q26.1-14.55 26.92-16.78 27.75-19 29.22-20.55 30.7-22.1 32.75-22.93 34.8-23.75 37.2-23.75L37.2-23.75Q40.25-23.75 42.57-22.45 44.9-21.15 46.22-18.82 47.55-16.5 47.55-13.5L47.55-13.5Q47.55-12.4 47.05-11.93 46.55-11.45 45.65-11.35L45.65-11.35ZM72-16L72-16 72-10.25 68-10.25 68-15.7Q68-18.15 66.57-19.3 65.15-20.45 62.8-20.45L62.8-20.45Q61.25-20.45 59.8-19.95 58.35-19.45 57.35-18.8L57.35-18.8 57.35-10.25 53.35-10.25 53.35-18.6Q53.35-19.6 53.77-20.3 54.2-21 55.25-21.65L55.25-21.65Q56.6-22.5 58.67-23.13 60.75-23.75 62.85-23.75L62.85-23.75Q65.4-23.75 67.34-22.98 69.3-22.2 70.25-20.85L70.25-20.85Q70.55-20.55 70.75-20.3 70.95-20.05 71.15-19.65L71.15-19.65Q71.5-19.05 71.75-18.1 72-17.15 72-16ZM86.65-15.9L86.65-15.9 86.65-10.25 82.65-10.25 82.65-15.7Q82.65-18.15 81.25-19.3 79.84-20.45 77.5-20.45L77.5-20.45Q75.75-20.45 74.12-19.73 72.5-19 71.2-17.65L71.2-17.65 69.59-20.55Q70.9-21.85 73-22.8 75.09-23.75 77.8-23.75L77.8-23.75Q80.5-23.75 82.47-22.9 84.45-22.05 85.55-20.3 86.65-18.55 86.65-15.9ZM53.35-1.55L53.35-12.9 57.35-12.9 57.35-0.1Q57.1 0 56.6 0.13 56.1 0.25 55.5 0.25L55.5 0.25Q54.45 0.25 53.9-0.18 53.35-0.6 53.35-1.55L53.35-1.55ZM68-1.55L68-12.9 72-12.9 72-0.1Q71.75 0 71.22 0.13 70.7 0.25 70.15 0.25L70.15 0.25Q69.05 0.25 68.52-0.18 68-0.6 68-1.55L68-1.55ZM82.65-1.55L82.65-12.9 86.65-12.9 86.65-0.1Q86.4 0 85.87 0.13 85.34 0.25 84.8 0.25L84.8 0.25Q83.7 0.25 83.17-0.18 82.65-0.6 82.65-1.55L82.65-1.55ZM90.69 7.3L90.69 7.3Q91.89 6.75 92.74 6.15 93.59 5.55 94.07 4.48 94.54 3.4 94.54 1.5L94.54 1.5 94.54-15.15 98.54-15.15 98.54 2.25Q98.54 5.15 97.54 6.78 96.54 8.4 95.24 9.08 93.94 9.75 92.99 9.75L92.99 9.75Q91.74 9.75 91.27 9.03 90.79 8.3 90.69 7.3ZM93.94-30.4L93.94-30.4Q93.94-31.45 94.69-32.18 95.44-32.9 96.54-32.9L96.54-32.9Q97.69-32.9 98.39-32.18 99.09-31.45 99.09-30.4L99.09-30.4Q99.09-29.35 98.39-28.63 97.69-27.9 96.54-27.9L96.54-27.9Q95.44-27.9 94.69-28.63 93.94-29.35 93.94-30.4ZM98.54-21.5L98.54-10.7 94.54-11.25 94.54-23Q94.79-23.1 95.32-23.23 95.84-23.35 96.44-23.35L96.44-23.35Q97.49-23.35 98.02-22.93 98.54-22.5 98.54-21.5L98.54-21.5ZM114.54 0.7L114.54 0.7Q109.84 0.7 107.27-1.15 104.69-3 104.69-6.5L104.69-6.5Q104.69-9.75 106.87-11.48 109.04-13.2 112.89-13.55L112.89-13.55 119.99-14.25 119.99-15.65Q119.99-18.15 118.49-19.3 116.99-20.45 114.44-20.45L114.44-20.45Q112.39-20.45 110.52-19.85 108.64-19.25 107.19-18.5L107.19-18.5Q106.79-18.85 106.47-19.33 106.14-19.8 106.14-20.3L106.14-20.3Q106.14-21.6 107.59-22.3L107.59-22.3Q108.94-23 110.72-23.38 112.49-23.75 114.49-23.75L114.49-23.75Q118.84-23.75 121.39-21.8 123.94-19.85 123.94-15.65L123.94-15.65 123.94-3.8Q123.94-2.7 123.52-2.13 123.09-1.55 122.24-1.05L122.24-1.05Q121.04-0.4 119.04 0.15 117.04 0.7 114.54 0.7ZM114.54-2.6L114.54-2.6Q116.64-2.6 118.02-3.03 119.39-3.45 119.99-3.85L119.99-3.85 119.99-11.1 113.79-10.45Q111.19-10.25 109.94-9.3 108.69-8.35 108.69-6.55L108.69-6.55Q108.69-4.7 110.17-3.65 111.64-2.6 114.54-2.6ZM135.94-5.15L135.94-5.15Q135.09-6.75 133.89-9.47 132.69-12.2 131.41-15.58 130.14-18.95 128.99-22.45L128.99-22.45Q129.34-22.95 129.91-23.25 130.49-23.55 131.14-23.55L131.14-23.55Q131.99-23.55 132.54-23.1 133.09-22.65 133.44-21.6L133.44-21.6Q134.94-17.4 136.59-13.25 138.24-9.1 140.24-4.65L140.24-4.65 140.44-4.65Q141.49-6.75 142.64-9.9 143.79-13.05 144.84-16.55 145.89-20.05 146.59-23.15L146.59-23.15Q146.94-23.3 147.36-23.43 147.79-23.55 148.29-23.55L148.29-23.55Q149.14-23.55 149.69-23.13 150.24-22.7 150.24-21.85L150.24-21.85Q150.24-21.05 149.79-19.18 149.34-17.3 148.56-14.83 147.79-12.35 146.76-9.58 145.74-6.8 144.56-4.13 143.39-1.45 142.19 0.7L142.19 0.7Q139.89 4.95 137.99 7.23 136.09 9.5 134.49 9.5L134.49 9.5Q133.34 9.5 132.71 8.9 132.09 8.3 131.94 7.5L131.94 7.5Q133.04 6.55 134.41 4.98 135.79 3.4 137.06 1.58 138.34-0.25 139.14-1.9L139.14-1.9Q138.29-2.15 137.56-2.8 136.84-3.45 135.94-5.15ZM165.64-31.05L165.64-31.05 156.39 5.25Q156.09 5.3 155.79 5.33 155.49 5.35 155.09 5.35L155.09 5.35Q154.14 5.35 153.64 4.88 153.14 4.4 153.14 3.55L153.14 3.55Q153.14 3 153.34 2.25 153.54 1.5 153.64 1.05L153.64 1.05 162.84-35.25Q163.19-35.3 163.49-35.33 163.79-35.35 164.14-35.35L164.14-35.35Q164.99-35.35 165.54-34.93 166.09-34.5 166.09-33.55L166.09-33.55Q166.09-33 165.94-32.33 165.79-31.65 165.64-31.05ZM170.73-8.75L183.73-15.1 168.83-22.95Q168.78-23.2 168.78-23.43 168.78-23.65 168.78-23.85L168.78-23.85Q168.78-24.55 169.28-25.08 169.78-25.6 170.58-25.6L170.58-25.6Q170.98-25.6 171.41-25.43 171.83-25.25 172.33-25L172.33-25 187.13-16.7Q187.63-15.95 187.63-15L187.63-15Q187.63-14.25 187.41-13.8 187.18-13.35 186.78-13.1L186.78-13.1 170.58-4.6Q169.73-4.85 169.33-5.38 168.93-5.9 168.93-6.5L168.93-6.5Q168.93-7.3 169.43-7.8 169.93-8.3 170.73-8.75L170.73-8.75Z" opacity="1" transform="matrix(1,0,0,1,0,0)" fill="black" class="wordmark-text-0" id="SvgjsPath4534"></path></svg></g></svg></g></svg></g></svg></g><g></g></svg></g></svg></g></svg></g><defs><mask></mask></defs></svg><rect width="320" height="360" fill="black" stroke="none" visibility="hidden"></rect></g></mask></svg><rect width="320" height="360" fill="black" stroke="none" visibility="hidden"></rect></g></mask><linearGradient x1="0" x2="1" y1="0.5" y2="0.5" id="9469614c-381f-4273-ae0a-6f6463a03c2b"><stop stop-color="#ffa62e" offset="0"></stop><stop stop-color="#f71b3d" offset="1"></stop></linearGradient></svg><rect width="320" height="360" fill="none" stroke="none" visibility="hidden"></rect></g></svg></g></svg>